<?xml version="1.0" encoding="UTF-8"?>
<svg width="48px" height="49px" viewBox="0 0 48 49" version="1.1" xmlns="http://www.w3.org/2000/svg" xmlns:xlink="http://www.w3.org/1999/xlink">
    <title>38198261-D283-48A4-B220-6CF722D51942</title>
    <g id="UI-kit" stroke="none" stroke-width="1" fill="none" fill-rule="evenodd">
        <g id="Connectors" transform="translate(-420.000000, -2471.000000)" fill-rule="nonzero">
            <g id="azure-active-directory-seeklogo.com" transform="translate(420.000000, 2471.000000)">
                <path d="M23.9743592,0 C24.025641,0 24.0769229,0.0636041696 24.1538457,0.178091675 C24.217948,0.279858346 29.6153632,6.70387948 36.1537996,14.4508673 C42.692236,22.1978552 48.0255489,28.570993 48,28.6091555 C47.9870875,28.647318 42.7819793,32.8833557 36.4358498,38.0098518 C30.0897203,43.1363478 24.6923051,47.4995939 24.4487163,47.7031272 C24.025641,48.0465897 24,48.0593106 23.8461545,47.9066606 C23.7564113,47.8176147 18.3461757,43.428927 11.8205597,38.1497809 C5.29494375,32.8706349 -0.0255486364,28.5201097 0,28.4565055 C0.0257332179,28.3929013 5.38468699,22.0452052 11.9359439,14.3363798 C18.4872008,6.62755448 23.8461545,0.254416679 23.8717955,0.152650007 C23.8974364,0.0508833357 23.9358978,0 23.9743592,0 Z" id="path1008" fill="#00BEF2"></path>
                <path d="M23.0897472,40.3632061 C22.3461603,40.0960685 21.4487279,39.3328185 21.0769344,38.6204518 C20.6153977,37.7427143 20.6538591,36.3688642 21.1666777,35.2748725 C21.564112,34.4607391 21.564112,34.4352974 21.3077028,34.2444849 C21.1666777,34.1427183 19.461556,33.2013765 17.5384865,32.170989 C15.6154169,31.1406015 13.9359362,30.2374222 13.820552,30.1738181 C13.6667065,30.0847722 13.4102972,30.1738181 12.9487605,30.4663973 C11.4487663,31.407739 9.88466971,31.3059723 8.65390521,30.1738181 C7.76929322,29.3596847 7.51288395,28.7872472 7.51288395,27.6169305 C7.51288395,26.4847762 7.74365229,25.8996179 8.47441872,25.1745303 C9.46159441,24.1950261 10.7821022,23.8642844 12.0513281,24.284072 C12.7436331,24.513047 12.7564536,24.513047 13.1923493,24.1823053 C13.7051679,23.8006803 17.8205367,20.0734759 19.8077085,18.2035133 L21.1794981,16.9059883 L20.7692433,16.0536924 C19.9359132,14.3363798 20.3589885,12.4282547 21.8205213,11.2833797 C22.61539,10.6600588 23.2051314,10.4692463 24.3461526,10.4692463 C27.0128091,10.4692463 28.8717763,13.2423881 27.8717801,15.7229507 C27.6025504,16.4098758 27.6025504,16.4225966 27.8589596,16.8423841 C28.0769075,17.2112883 31.7820215,21.6508593 33.7435524,23.9151678 C34.0897049,24.3095136 34.4743189,24.6275345 34.6025235,24.6275345 C34.7307281,24.6275345 35.1666239,24.5003261 35.5768787,24.3476761 C37.4871278,23.5971469 39.4999406,24.436722 40.2948093,26.3194054 C40.8076279,27.5278846 40.3589116,29.1561514 39.2691722,30.1356556 C38.4999444,30.8225806 37.935844,31.0388348 36.9102069,31.0388348 C36.192261,31.0388348 35.9230312,30.9625098 35.1666239,30.5554431 C34.6025235,30.2501431 34.1666277,30.0974931 33.9871412,30.1483764 C33.6794501,30.2247014 28.9486991,33.4430724 27.897421,34.2826474 C27.2563979,34.8042016 27.205116,34.9950141 27.5384481,35.770985 C27.8589596,36.534235 27.8204983,37.7299934 27.4615253,38.4805226 C27.0640909,39.3073768 26.0769152,40.134231 25.2179442,40.3886477 C24.3461526,40.6303436 23.8205136,40.6303436 23.0897472,40.3632061 L23.0897472,40.3632061 Z M23.3076951,26.3448471 L23.3076951,19.0939717 L22.8974402,18.534255 C22.6666719,18.228955 22.448724,17.9745383 22.4102626,17.9745383 C22.2435966,17.9745383 13.9615771,25.4416679 13.9615771,25.5943179 C13.9615771,25.6324804 14.0897818,26.0141054 14.2436273,26.4211721 C14.3974729,26.8409596 14.5128571,27.4388388 14.5000366,27.7823013 C14.4872161,28.1257638 14.4872161,28.5073888 14.4872161,28.6345972 C14.5000366,28.9271763 17.2692567,30.6826514 21.4230869,33.0614474 C22.5641082,33.7229307 22.9615426,33.8883016 23.1025677,33.7738141 C23.2692337,33.6338849 23.3076951,32.2218723 23.3076951,26.3448471 L23.3076951,26.3448471 Z M26.8205021,32.7561474 C32.3076605,29.334243 33.3332976,28.647318 33.3973999,28.3929013 C33.4358613,28.2402513 33.4871432,27.6423721 33.4999636,27.0444929 L33.538425,25.9759429 L30.743564,22.6812469 C27.7435755,19.1575759 26.6410156,17.9618175 26.3846063,17.9618175 C26.2948631,17.9618175 25.8461469,18.2162342 25.3846102,18.5215342 L24.5384596,19.0812509 L24.576921,26.3194054 C24.6153824,32.8070307 24.6666642,33.9010224 24.910253,33.9010224 C24.935894,33.9137432 25.8076855,33.3921891 26.8205021,32.7561474 L26.8205021,32.7561474 Z" id="path923" stroke="#FFFFFF" stroke-width="0.5" fill="#FFFFFF" stroke-linecap="round" stroke-linejoin="round"></path>
            </g>
        </g>
    </g>
</svg>